<svg viewBox="0 0 36 36" xmlns="http://www.w3.org/2000/svg" xmlns:xlink="http://www.w3.org/1999/xlink" width="36.000000" height="36.000000" fill="none" customFrame="#000000">
	<defs>
		<g id="pixso_custom_effect_1">
			<effect x="0.000000" y="1.000000" visibility="visible" fill="rgb(31,41,55)" fill-opacity="0.400000006" effectType="innerShadow" stdDeviation="0.5" radius="0" />
		</g>
		<filter id="filter_1" width="31.257812" height="31.257324" x="2.375000" y="2.371094" filterUnits="userSpaceOnUse" customEffect="url(#pixso_custom_effect_1)" color-interpolation-filters="sRGB">
			<feFlood flood-opacity="0" result="BackgroundImageFix" />
			<feBlend result="shape" in="SourceGraphic" in2="BackgroundImageFix" mode="normal" />
			<feOffset dx="0.000000" dy="1.000000" in="SourceAlpha" />
			<feGaussianBlur stdDeviation="0.166666672" />
			<feComposite k2="-1" k3="1" in2="SourceAlpha" operator="arithmetic" />
			<feColorMatrix type="matrix" values="0 0 0 0 0.121569 0 0 0 0 0.160784 0 0 0 0 0.215686 0 0 0 0.4 0 " />
			<feBlend result="effect_innerShadow_1" in2="shape" mode="normal" />
		</filter>
	</defs>
	<rect id="SVG" width="36.000000" height="36.000000" x="0.000000" y="0.000000" />
	<g filter="url(#filter_1)">
		<path id="Vector" d="M16.9432 4.06027C17.2245 3.77907 17.6059 3.62109 18.0037 3.62109C18.4014 3.62109 18.7829 3.77907 19.0642 4.06027L22.5682 7.56427C22.8494 7.84557 23.0074 8.22703 23.0074 8.62477C23.0074 9.02252 22.8494 9.40398 22.5682 9.68527L19.0642 13.1893C18.7829 13.4705 18.4014 13.6285 18.0037 13.6285C17.6059 13.6285 17.2245 13.4705 16.9432 13.1893L13.4392 9.68527C13.158 9.40398 13 9.02252 13 8.62477C13 8.22703 13.158 7.84557 13.4392 7.56427L16.9432 4.06027ZM16.9432 22.8103C17.2245 22.5291 17.6059 22.3711 18.0037 22.3711C18.4014 22.3711 18.7829 22.5291 19.0642 22.8103L22.5682 26.3143C22.8494 26.5956 23.0074 26.977 23.0074 27.3748C23.0074 27.7725 22.8494 28.154 22.5682 28.4353L19.0642 31.9393C18.7829 32.2205 18.4014 32.3785 18.0037 32.3785C17.6059 32.3785 17.2245 32.2205 16.9432 31.9393L13.4392 28.4353C13.158 28.154 13 27.7725 13 27.3748C13 26.977 13.158 26.5956 13.4392 26.3143L16.9432 22.8103ZM7.56818 13.4353C7.84947 13.1541 8.23093 12.9961 8.62868 12.9961C9.02643 12.9961 9.40789 13.1541 9.68918 13.4353L13.1932 16.9393C13.4744 17.2206 13.6324 17.602 13.6324 17.9998C13.6324 18.3975 13.4744 18.779 13.1932 19.0603L9.68918 22.5643C9.40789 22.8455 9.02643 23.0035 8.62868 23.0035C8.23093 23.0035 7.84947 22.8455 7.56818 22.5643L4.06418 19.0603C3.78297 18.779 3.625 18.3975 3.625 17.9998C3.625 17.602 3.78297 17.2206 4.06418 16.9393L7.56818 13.4353ZM26.3182 13.4353C26.5995 13.1541 26.9809 12.9961 27.3787 12.9961C27.7764 12.9961 28.1579 13.1541 28.4392 13.4353L31.9432 16.9393C32.2244 17.2206 32.3824 17.602 32.3824 17.9998C32.3824 18.3975 32.2244 18.779 31.9432 19.0603L28.4392 22.5643C28.1579 22.8455 27.7764 23.0035 27.3787 23.0035C26.9809 23.0035 26.5995 22.8455 26.3182 22.5643L22.8142 19.0603C22.533 18.779 22.375 18.3975 22.375 17.9998C22.375 17.602 22.533 17.2206 22.8142 16.9393L26.3182 13.4353Z" fill-rule="nonzero" stroke="rgb(156,163,175)" stroke-linecap="round" stroke-linejoin="round" stroke-width="2.5" />
	</g>
</svg>
