<svg viewBox="0 0 24 24" xmlns="http://www.w3.org/2000/svg" xmlns:xlink="http://www.w3.org/1999/xlink" width="24.000000" height="24.000000" fill="none">
	<rect id="Frame" width="24.000000" height="24.000000" x="0.000000" y="0.000000" />
	<path id="Vector" d="M15.1901 8.7995C16.0393 8.7995 16.8537 9.13657 17.4544 9.73666C18.0552 10.3367 18.3932 11.1508 18.3941 11.9999C18.3932 12.849 18.0552 13.6631 17.4544 14.2631C16.8537 14.8632 16.0393 15.2003 15.1901 15.2003C14.341 15.2003 13.5266 14.8632 12.9258 14.2631C12.3251 13.6631 11.9871 12.849 11.9861 11.9999C11.9871 11.1508 12.3251 10.3367 12.9258 9.73666C13.5266 9.13657 14.341 8.7995 15.1901 8.7995C16.039 8.7995 16.8533 8.4626 17.454 7.86277C18.0547 7.26294 18.3929 6.44922 18.3941 5.6003C18.3932 4.75117 18.0552 3.93715 17.4544 3.33706C16.8537 2.73697 16.0393 2.3999 15.1901 2.3999L11.9861 2.3999L8.78213 2.3999C7.93299 2.3999 7.11859 2.73697 6.51783 3.33706C5.91706 3.93715 5.57908 4.75117 5.57812 5.6003C5.5794 6.44922 5.91752 7.26294 6.51825 7.86277C7.11898 8.4626 7.9332 8.7995 8.78213 8.7995M11.9861 2.3999L11.9861 8.7995L11.9861 15.2003L11.9861 18.3995C11.9852 19.2486 11.6472 20.0627 11.0464 20.6627C10.4457 21.2628 9.63126 21.5999 8.78213 21.5999C7.93299 21.5999 7.11859 21.2628 6.51783 20.6627C5.91706 20.0627 5.57908 19.2486 5.57812 18.3995C5.5794 17.5506 5.91752 16.7369 6.51825 16.137C7.11898 15.5372 7.9332 15.2003 8.78213 15.2003M11.9861 8.7995L8.78213 8.7995C7.93299 8.7995 7.11859 9.13657 6.51783 9.73666C5.91706 10.3367 5.57908 11.1508 5.57812 11.9999C5.57908 12.849 5.91706 13.6631 6.51783 14.2631C7.11859 14.8632 7.93299 15.2003 8.78213 15.2003L11.9861 15.2003M11.9861 8.7995L15.1901 8.7995" fill-rule="nonzero" stroke="rgb(156,163,175)" stroke-width="1.5" />
</svg>
