<svg viewBox="0 0 24 24" xmlns="http://www.w3.org/2000/svg" xmlns:xlink="http://www.w3.org/1999/xlink" width="24.000000" height="24.000000" fill="none">
	<rect id="figma 1" width="24.000000" height="24.000000" x="0.000000" y="0.000000" fill="rgb(255,255,255)" fill-opacity="0" />
	<path id="Vector" d="M12 12C12 10.3428 13.3428 9 15 9C16.6572 9 18 10.3428 18 12C18 13.6572 16.6572 15 15 15C13.3428 15 12 13.6572 12 12Z" fill="rgb(26,188,254)" fill-rule="nonzero" />
	<path id="Vector" d="M6 18C6 16.3428 7.3428 15 9 15L12 15L12 18C12 19.6572 10.6572 21 9 21C7.3428 21 6 19.6572 6 18Z" fill="rgb(10,207,131)" fill-rule="nonzero" />
	<path id="Vector" d="M12 3L12 9L15 9C16.6572 9 18 7.6572 18 6C18 4.3428 16.6572 3 15 3L12 3Z" fill="rgb(255,114,98)" fill-rule="nonzero" />
	<path id="Vector" d="M6 6C6 7.6572 7.3428 9 9 9L12 9L12 3L9 3C7.3428 3 6 4.3428 6 6Z" fill="rgb(242,78,30)" fill-rule="nonzero" />
	<path id="Vector" d="M6 12C6 13.6572 7.3428 15 9 15L12 15L12 9L9 9C7.3428 9 6 10.3428 6 12Z" fill="rgb(162,89,255)" fill-rule="nonzero" />
</svg>
