<svg viewBox="0 0 36 36" xmlns="http://www.w3.org/2000/svg" xmlns:xlink="http://www.w3.org/1999/xlink" width="36.000000" height="36.000000" fill="none">
	<defs>
		<g id="pixso_custom_effect_2">
			<effect x="0.000000" y="1.000000" visibility="visible" fill="rgb(31,41,55)" fill-opacity="0.400000006" effectType="innerShadow" stdDeviation="0.5" radius="0" />
		</g>
		<filter id="filter_2" width="27.183594" height="30.074463" x="4.406250" y="2.963623" filterUnits="userSpaceOnUse" customEffect="url(#pixso_custom_effect_2)" color-interpolation-filters="sRGB">
			<feFlood flood-opacity="0" result="BackgroundImageFix" />
			<feBlend result="shape" in="SourceGraphic" in2="BackgroundImageFix" mode="normal" />
			<feOffset dx="0.000000" dy="1.000000" in="SourceAlpha" />
			<feGaussianBlur stdDeviation="0.166666672" />
			<feComposite k2="-1" k3="1" in2="SourceAlpha" operator="arithmetic" />
			<feColorMatrix type="matrix" values="0 0 0 0 0.121569 0 0 0 0 0.160784 0 0 0 0 0.215686 0 0 0 0.4 0 " />
			<feBlend result="effect_innerShadow_1" in2="shape" mode="normal" />
		</filter>
		<g id="pixso_custom_effect_3">
			<effect x="0.000000" y="1.000000" visibility="visible" fill="rgb(31,41,55)" fill-opacity="0.400000006" effectType="innerShadow" stdDeviation="0.5" radius="0" />
		</g>
		<filter id="filter_3" width="7.500000" height="7.500000" x="14.250000" y="14.250000" filterUnits="userSpaceOnUse" customEffect="url(#pixso_custom_effect_3)" color-interpolation-filters="sRGB">
			<feFlood flood-opacity="0" result="BackgroundImageFix" />
			<feBlend result="shape" in="SourceGraphic" in2="BackgroundImageFix" mode="normal" />
			<feOffset dx="0.000000" dy="1.000000" in="SourceAlpha" />
			<feGaussianBlur stdDeviation="0.166666672" />
			<feComposite k2="-1" k3="1" in2="SourceAlpha" operator="arithmetic" />
			<feColorMatrix type="matrix" values="0 0 0 0 0.121569 0 0 0 0 0.160784 0 0 0 0 0.215686 0 0 0 0.4 0 " />
			<feBlend result="effect_innerShadow_1" in2="shape" mode="normal" />
		</filter>
	</defs>
	<rect id="Frame" width="36.000000" height="36.000000" x="0.000000" y="0.000000" fill="rgb(255,255,255)" fill-opacity="0" />
	<g filter="url(#filter_2)">
		<path id="Vector" d="M17.9982 4.21362C18.5249 4.21362 19.0422 4.35224 19.4982 4.61555L28.8403 10.0095C29.2963 10.2728 29.675 10.6515 29.9383 11.1076C30.2016 11.5636 30.3402 12.0809 30.3403 12.6075L30.3403 23.3925C30.3402 23.9191 30.2016 24.4365 29.9383 24.8925C29.675 25.3485 29.2963 25.7272 28.8403 25.9905L19.4982 31.386C19.0422 31.6494 18.5249 31.788 17.9982 31.788C17.4716 31.788 16.9543 31.6494 16.4982 31.386L7.15625 25.9935C6.69998 25.7301 6.32114 25.3512 6.05782 24.8949C5.7945 24.4385 5.656 23.9209 5.65625 23.394L5.65625 12.609C5.65626 12.0824 5.79489 11.5651 6.05819 11.1091C6.3215 10.653 6.7002 10.2743 7.15625 10.011L16.4982 4.61555C16.9543 4.35224 17.4716 4.21362 17.9982 4.21362Z" fill-rule="nonzero" stroke="rgb(156,163,175)" stroke-linecap="round" stroke-linejoin="round" stroke-width="2.5" />
	</g>
	<g filter="url(#filter_3)">
		<path id="Vector" d="M16.875 18L19.125 18M19.591 19.591C19.169 20.0129 18.5967 20.25 18 20.25C17.4033 20.25 16.831 20.0129 16.409 19.591C15.9871 19.169 15.75 18.5967 15.75 18C15.75 17.4033 15.9871 16.831 16.409 16.409C16.831 15.9871 17.4033 15.75 18 15.75C18.5967 15.75 19.169 15.9871 19.591 16.409C20.0129 16.831 20.25 17.4033 20.25 18C20.25 18.5967 20.0129 19.169 19.591 19.591Z" fill-rule="nonzero" stroke="rgb(156,163,175)" stroke-linecap="round" stroke-linejoin="round" stroke-width="3" />
	</g>
</svg>
